<?xml version="1.0" encoding="UTF-8" standalone="no"?>
<svg
   xmlns:osb="http://www.openswatchbook.org/uri/2009/osb"
   xmlns:dc="http://purl.org/dc/elements/1.1/"
   xmlns:cc="http://creativecommons.org/ns#"
   xmlns:rdf="http://www.w3.org/1999/02/22-rdf-syntax-ns#"
   xmlns:svg="http://www.w3.org/2000/svg"
   xmlns="http://www.w3.org/2000/svg"
   xmlns:xlink="http://www.w3.org/1999/xlink"
   xmlns:sodipodi="http://sodipodi.sourceforge.net/DTD/sodipodi-0.dtd"
   xmlns:inkscape="http://www.inkscape.org/namespaces/inkscape"
   width="30.036659mm"
   height="37.864353mm"
   viewBox="0 0 30.036659 37.864353"
   version="1.1"
   id="svg8"
   inkscape:version="1.0.1 (3bc2e813f5, 2020-09-07)"
   sodipodi:docname="logo_v1.1.svg"
   inkscape:export-filename="D:\Documents\1.Ecole\University\Undergrad\z.CAPSTONE\logo_v1_margins_2.png"
   inkscape:export-xdpi="338.25333"
   inkscape:export-ydpi="338.25333">
  <defs
     id="defs2">
    <inkscape:path-effect
       effect="mirror_symmetry"
       start_point="38.399417,3.4085506"
       end_point="38.399417,106.70987"
       center_point="38.399417,55.059212"
       id="path-effect966"
       is_visible="true"
       lpeversion="1"
       mode="vertical"
       discard_orig_path="false"
       fuse_paths="false"
       oposite_fuse="false"
       split_items="false" />
    <inkscape:path-effect
       effect="mirror_symmetry"
       start_point="44.721469,54.527324"
       end_point="44.721469,56.092347"
       center_point="44.721469,55.309835"
       id="path-effect903"
       is_visible="true"
       lpeversion="1"
       mode="free"
       discard_orig_path="false"
       fuse_paths="false"
       oposite_fuse="false"
       split_items="false" />
    <linearGradient
       id="linearGradient895"
       osb:paint="solid">
      <stop
         style="stop-color:#000000;stop-opacity:1;"
         offset="0"
         id="stop893" />
    </linearGradient>
    <rect
       x="20.847023"
       y="29.399649"
       width="101.02788"
       height="31.003265"
       id="rect12" />
    <linearGradient
       inkscape:collect="always"
       xlink:href="#linearGradient895"
       id="linearGradient897"
       x1="22.018988"
       y1="43.04105"
       x2="42.055649"
       y2="43.04105"
       gradientUnits="userSpaceOnUse" />
  </defs>
  <sodipodi:namedview
     id="base"
     pagecolor="#ffffff"
     bordercolor="#666666"
     borderopacity="1.0"
     inkscape:pageopacity="0.0"
     inkscape:pageshadow="2"
     inkscape:zoom="3.7321319"
     inkscape:cx="-13.58244"
     inkscape:cy="72.33057"
     inkscape:document-units="px"
     inkscape:current-layer="g1017"
     inkscape:document-rotation="0"
     showgrid="false"
     inkscape:window-width="1920"
     inkscape:window-height="1017"
     inkscape:window-x="1912"
     inkscape:window-y="-8"
     inkscape:window-maximized="1"
     inkscape:snap-page="false"
     inkscape:pagecheckerboard="true"
     fit-margin-top="5"
     fit-margin-left="5"
     fit-margin-right="5"
     fit-margin-bottom="5"
     inkscape:object-paths="true"
     inkscape:object-nodes="true"
     inkscape:snap-smooth-nodes="true"
     inkscape:snap-object-midpoints="false"
     inkscape:snap-others="false" />
  <metadata
     id="metadata5">
    <rdf:RDF>
      <cc:Work
         rdf:about="">
        <dc:format>image/svg+xml</dc:format>
        <dc:type
           rdf:resource="http://purl.org/dc/dcmitype/StillImage" />
        <dc:title></dc:title>
      </cc:Work>
    </rdf:RDF>
  </metadata>
  <g
     inkscape:label="Layer 1"
     inkscape:groupmode="layer"
     id="layer1"
     transform="translate(4.1445463,4.5177361)">
    <g
       id="g1017"
       transform="translate(-21.166667,-28.641146)"
       style="fill:#a7d86d;fill-opacity:1;stroke:none;stroke-opacity:1">
      <text
         xml:space="preserve"
         id="text10"
         style="font-style:italic;font-variant:normal;font-weight:normal;font-stretch:normal;font-size:28.2222px;line-height:0;font-family:sans-serif;-inkscape-font-specification:'sans-serif Italic';letter-spacing:0px;word-spacing:0px;white-space:pre;shape-inside:url(#rect12);fill:#a7d86d;fill-opacity:1;stroke:none;stroke-opacity:1;"
         transform="translate(0.00313307,0.00626615)"><tspan
           x="20.847656"
           y="48.09281"><tspan
             style="font-style:italic;font-variant:normal;font-weight:normal;font-stretch:normal;font-size:28.2222px;line-height:0.75;font-family:sans-serif;-inkscape-font-specification:'sans-serif Italic';fill:#a7d86d;fill-opacity:1;stroke:none;stroke-opacity:1">φ</tspan></tspan></text>
      <path
         style="fill:#a7d86d;fill-opacity:1;stroke:none;stroke-width:0.248772px;stroke-linecap:butt;stroke-linejoin:miter;stroke-opacity:1"
         d="m 26.713589,54.29848 c 0,0 0.132896,-0.808188 0.271371,-1.17478 0.879254,-2.327744 4.059461,-1.616897 3.988139,0.698341 -0.01266,0.410551 -0.17703,1.224282 -0.17703,1.224282 z"
         id="path16"
         sodipodi:nodetypes="csscc" />
      <path
         style="fill:#a7d86d;fill-opacity:1;stroke:none;stroke-width:0.248772px;stroke-linecap:butt;stroke-linejoin:miter;stroke-opacity:1"
         d="m 26.713589,54.29848 c 0,0 0.132896,-0.808188 0.271371,-1.17478 0.879254,-2.327744 4.059461,-1.616897 3.988139,0.698341 -0.01266,0.410551 -0.17703,1.224282 -0.17703,1.224282 z"
         id="path955"
         sodipodi:nodetypes="csscc" />
      <path
         style="fill:#a7d86d;fill-opacity:1;stroke:none;stroke-width:0.248772px;stroke-linecap:butt;stroke-linejoin:miter;stroke-opacity:1"
         d="m 31.43837,33.092753 c 0,0 -0.548853,0.60794 -0.863584,0.841413 -1.998428,1.482486 -4.28904,-0.835296 -2.976969,-2.744193 0.23267,-0.338492 0.810999,-0.934069 0.810999,-0.934069 z"
         id="path955-9"
         sodipodi:nodetypes="csscc" />
      <path
         id="path957-7"
         style="fill:#a7d86d;fill-opacity:1;stroke:none;stroke-width:0.162431;stroke-linecap:butt;stroke-linejoin:round;stroke-miterlimit:8.6;stroke-dasharray:none;stroke-opacity:1;paint-order:normal"
         d="m 30.240894,29.123698 a 0.26908863,0.25400072 88.762571 0 0 -0.177219,0.09247 l -1.044271,1.20077 0.377917,0.359892 1.039796,-1.195809 0.0045,-0.005 a 0.26908863,0.25400072 88.762571 0 0 0.06821,-0.189014 0.26908863,0.25400072 88.762571 0 0 -0.259754,-0.263541 0.26908863,0.25400072 88.762571 0 0 -0.0092,1.98e-4 z" />
      <path
         style="fill:none;stroke:none;stroke-width:0.264583px;stroke-linecap:butt;stroke-linejoin:miter;stroke-opacity:1"
         d="m 30.570493,29.775745 0.484064,0.04786"
         id="path926" />
      <path
         id="path957-7-5"
         style="fill:#a7d86d;fill-opacity:1;stroke:none;stroke-width:0.168506;stroke-linecap:butt;stroke-linejoin:round;stroke-miterlimit:8.6;stroke-dasharray:none;stroke-opacity:1;paint-order:normal"
         d="m 32.074243,30.719441 a 0.27915262,0.26350042 88.762571 0 0 -0.183847,0.09593 l -1.083327,1.245679 0.392051,0.373352 1.078685,-1.240533 0.0047,-0.0052 a 0.27915262,0.26350042 88.762571 0 0 0.07076,-0.196083 0.27915262,0.26350042 88.762571 0 0 -0.269469,-0.273397 0.27915262,0.26350042 88.762571 0 0 -0.0096,2.05e-4 z" />
      <path
         id="path957-7-2"
         style="fill:#a7d86d;fill-opacity:1;stroke:none;stroke-width:0.162431;stroke-linecap:butt;stroke-linejoin:round;stroke-miterlimit:8.6;stroke-dasharray:none;stroke-opacity:1;paint-order:normal"
         d="m 29.788768,56.942293 a 0.26908863,0.25400072 56.412599 0 0 0.10023,-0.172947 l 0.239678,-1.573183 -0.511837,-0.101815 -0.238547,1.566598 -0.0011,0.0066 a 0.26908863,0.25400072 56.412599 0 0 0.04351,0.196176 0.26908863,0.25400072 56.412599 0 0 0.360458,0.08364 0.26908863,0.25400072 56.412599 0 0 0.0077,-0.0051 z" />
      <path
         id="path957-7-5-9"
         style="fill:#a7d86d;fill-opacity:1;stroke:none;stroke-width:0.168506;stroke-linecap:butt;stroke-linejoin:round;stroke-miterlimit:8.6;stroke-dasharray:none;stroke-opacity:1;paint-order:normal"
         d="m 27.386098,56.575222 a 0.27915262,0.26350042 56.412599 0 0 0.103977,-0.179416 l 0.248642,-1.632021 -0.530979,-0.105627 -0.247469,1.62519 -0.0012,0.0069 a 0.27915262,0.26350042 56.412599 0 0 0.04514,0.203512 0.27915262,0.26350042 56.412599 0 0 0.373938,0.08677 0.27915262,0.26350042 56.412599 0 0 0.008,-0.0053 z" />
    </g>
  </g>
</svg>
